<svg version="1.1" id="layer" xmlns="http://www.w3.org/2000/svg" xmlns:xlink="http://www.w3.org/1999/xlink" x="0px" y="0px"
	 viewBox="0 0 600 149.1" style="enable-background:new 0 0 600 149.1;" reserveAspectRatio="xMidYMid meet" xml:space="preserve">
<style type="text/css">
	.st0{fill:#FFFFFF;}
	.st1{fill:#E50012;}
	.st2{fill:#23262A;}
</style>
<polygon class="st0" points="40,8.8 40,36.4 69.1,36.4 69.1,108.6 95.6,108.6 95.6,8.8 "/>
<rect x="30" class="st0" width="6.4" height="36.4"/>
<polygon class="st0" points="0,8.8 0,108.6 55.6,108.6 55.6,81 26.4,81 26.4,8.8 "/>
<rect x="59.1" y="81" class="st0" width="6.4" height="36.4"/>
<rect x="130.1" y="5.9" class="st1" width="23.5" height="107.7"/>
<path class="st1" d="M319.2,34.8v78.8h25.2V73.4c0.2-19.7,22.4-21,22.4-21v-19c-12.3,0-22.4,9.4-22.4,9.4v-8.1h-25.2V34.8z"/>
<path class="st1" d="M423.2,34.8v78.9h24.2V67.2c0-11.2,17.9-12,17.9,0v46.5H489v-59c0-11.9-15.6-29.4-41.7-12.4v-7.4h-24.1V34.8z"
	/>
<path class="st2" d="M587.6,28.9c-5.8,0-10.6-4.8-10.6-10.6c0-5.8,4.8-10.6,10.6-10.6s10.6,4.8,10.6,10.6
	C598.2,24.2,593.5,28.9,587.6,28.9 M587.6,5.9c-6.8,0-12.4,5.6-12.4,12.4c0,6.9,5.6,12.4,12.4,12.4c6.8,0,12.4-5.6,12.4-12.4
	C600,11.5,594.5,5.9,587.6,5.9"/>
<path class="st2" d="M584.4,17.6h4.1c1.3,0,2.6-0.3,2.6-2.2c0-2-1.5-2.2-2.3-2.2h-4.4L584.4,17.6L584.4,17.6z M584.4,24.7h-1.8v-13
	h6c2.1,0,4.3,0.7,4.3,3.5c0,1.9-1,2.6-1.8,3.1c0.7,0.3,1.5,0.6,1.5,2.4l0.1,2.4c0,0.7,0.1,1,0.7,1.3v0.3h-2.1
	c-0.3-0.8-0.3-2.8-0.3-3.3c0-1.1-0.2-2.3-2.3-2.3h-4.2v5.6H584.4z"/>
<path class="st1" d="M372.6,51.8c0,0,2.2-0.6,11.2-0.2c11.5,0.4,10.1,9.8,10.1,9.8s-5.6-3.4-13.6-3.5c-8.9-0.2-26.6,5.3-26.6,28.7
	c0,20.7,16.5,26.7,26.4,26.7c9.5,0,14.9-4.6,14.9-4.6v5h22.8V60c0-10.5-1.9-13.3-6.7-18.6c-6.6-7.4-22.4-8-22.4-8h-16.1L372.6,51.8
	L372.6,51.8z M375,84.7c0-5.6,4.5-10.1,10.1-10.1s10.1,4.5,10.1,10.1s-4.5,10.1-10.1,10.1S375,90.3,375,84.7"/>
<path class="st1" d="M529.1,90.2c-8.4,0-15.2-6.8-15.2-15.2c0-8.4,6.8-15.2,15.2-15.2s15.2,6.8,15.2,15.2
	C544.3,83.4,537.5,90.2,529.1,90.2 M529.4,37.3c-25.2-0.6-36,20.7-35.9,37.4c-0.2,21.9,14.3,39.8,35.7,38c5.1-0.5,9.3-2.5,13.5-5.8
	v6.7h24.4V5.9h-24.4v35.8C537.6,38,529.4,37.3,529.4,37.3"/>
<path class="st1" d="M275.1,89.5c-8.4,0-15.2-6.8-15.2-15.2c0-8.4,6.8-15.3,15.2-15.3c8.4,0,15.3,6.8,15.3,15.3
	C290.3,82.7,283.5,89.5,275.1,89.5 M276.8,126.2c-11.2-0.5-13.5-7.6-13.5-7.6h-28.2c5.9,39.4,75,40.9,78.2,3.2v-87h-23.6V43
	c-16.2-16.4-54-4.5-52.7,32.4c1.2,34.5,37.8,44.9,52.7,31.5v9.3C289.7,126.7,276.8,126.2,276.8,126.2"/>
<path class="st1" d="M182.6,64.3c0.8-6.5,6.3-11.6,13-11.6s12.3,5.1,13,11.6H182.6z M195.6,31.9c-19.2,0-38,15.7-38,40.6
	c0,27.9,17.5,44.2,40.5,43.5c17.7-0.6,29.9-11.7,34.3-27.4h-23.9c-1.2,2.5-4.7,5.4-11.8,5.4c-9,0-13.7-6.6-13.7-13.2h50.9
	C236.8,51.7,218.1,31.9,195.6,31.9"/>
</svg>
